<?xml version="1.0" encoding="UTF-8"?>
<svg id="Layer_1" xmlns="http://www.w3.org/2000/svg" xmlns:xlink="http://www.w3.org/1999/xlink" version="1.1" viewBox="0 0 469.9 404.7">
  <!-- Generator: Adobe Illustrator 29.2.1, SVG Export Plug-In . SVG Version: 2.1.0 Build 116)  -->
  <defs>
    <style>
      .st0, .st1, .st2, .st3, .st4, .st5 {
        fill: none;
      }

      .st6 {
        fill: #f4acac;
      }

      .st7 {
        clip-path: url(#clippath-17);
      }

      .st8 {
        clip-path: url(#clippath-19);
      }

      .st9 {
        clip-path: url(#clippath-11);
      }

      .st10 {
        clip-path: url(#clippath-16);
      }

      .st11 {
        clip-path: url(#clippath-18);
      }

      .st12 {
        clip-path: url(#clippath-10);
      }

      .st13 {
        clip-path: url(#clippath-15);
      }

      .st14 {
        clip-path: url(#clippath-13);
      }

      .st15 {
        clip-path: url(#clippath-14);
      }

      .st16 {
        clip-path: url(#clippath-12);
      }

      .st17 {
        clip-path: url(#clippath-27);
      }

      .st18 {
        clip-path: url(#clippath-26);
      }

      .st19 {
        clip-path: url(#clippath-20);
      }

      .st20 {
        clip-path: url(#clippath-21);
      }

      .st21 {
        clip-path: url(#clippath-22);
      }

      .st22 {
        clip-path: url(#clippath-23);
      }

      .st23 {
        clip-path: url(#clippath-24);
      }

      .st24 {
        clip-path: url(#clippath-25);
      }

      .st25 {
        clip-path: url(#clippath-3);
      }

      .st26 {
        clip-path: url(#clippath-4);
      }

      .st27 {
        clip-path: url(#clippath-2);
      }

      .st28 {
        clip-path: url(#clippath-7);
      }

      .st29 {
        clip-path: url(#clippath-6);
      }

      .st30 {
        clip-path: url(#clippath-9);
      }

      .st31 {
        clip-path: url(#clippath-8);
      }

      .st32 {
        clip-path: url(#clippath-5);
      }

      .st1 {
        stroke: #2626de;
      }

      .st1, .st33, .st2, .st3, .st5 {
        stroke-width: 1.5px;
      }

      .st1, .st34, .st2, .st3, .st35, .st5 {
        stroke-linejoin: round;
      }

      .st1, .st2, .st3, .st4, .st5 {
        stroke-linecap: square;
      }

      .st33 {
        stroke-miterlimit: 10;
      }

      .st33, .st34, .st2, .st35, .st4 {
        stroke: #000;
      }

      .st34 {
        stroke-linecap: round;
      }

      .st36 {
        fill: #fefefe;
      }

      .st3 {
        stroke: #00198b;
      }

      .st35, .st4 {
        stroke-width: .8px;
      }

      .st37 {
        fill: #989898;
      }

      .st5 {
        stroke: #e53333;
      }
    </style>
    <clipPath id="clippath">
      <rect class="st0" x="26" y="25.2" width="436.7" height="345.8"/>
    </clipPath>
    <clipPath id="clippath-2">
      <rect class="st0" x="26" y="25.2" width="436.7" height="345.8"/>
    </clipPath>
    <clipPath id="clippath-3">
      <rect class="st0" x="26" y="25.2" width="436.7" height="345.8"/>
    </clipPath>
    <clipPath id="clippath-4">
      <rect class="st0" x="26" y="25.2" width="436.7" height="345.8"/>
    </clipPath>
    <clipPath id="clippath-5">
      <rect class="st0" x="26" y="25.2" width="436.7" height="345.8"/>
    </clipPath>
    <clipPath id="clippath-6">
      <rect class="st0" x="26" y="25.2" width="436.7" height="345.8"/>
    </clipPath>
    <clipPath id="clippath-7">
      <rect class="st0" x="26" y="25.2" width="436.7" height="345.8"/>
    </clipPath>
    <clipPath id="clippath-8">
      <rect class="st0" x="26" y="25.2" width="436.7" height="345.8"/>
    </clipPath>
    <clipPath id="clippath-9">
      <rect class="st0" x="26" y="25.2" width="436.7" height="345.8"/>
    </clipPath>
    <clipPath id="clippath-10">
      <rect class="st0" x="26" y="25.2" width="436.7" height="345.8"/>
    </clipPath>
    <clipPath id="clippath-11">
      <rect class="st0" x="26" y="25.2" width="436.7" height="345.8"/>
    </clipPath>
    <clipPath id="clippath-12">
      <rect class="st0" x="26" y="25.2" width="436.7" height="345.8"/>
    </clipPath>
    <clipPath id="clippath-13">
      <rect class="st0" x="26" y="25.2" width="436.7" height="345.8"/>
    </clipPath>
    <clipPath id="clippath-14">
      <rect class="st0" x="26" y="25.2" width="436.7" height="345.8"/>
    </clipPath>
    <clipPath id="clippath-15">
      <rect class="st0" x="26" y="25.2" width="436.7" height="345.8"/>
    </clipPath>
    <clipPath id="clippath-16">
      <rect class="st0" x="26" y="25.2" width="436.7" height="345.8"/>
    </clipPath>
    <clipPath id="clippath-17">
      <rect class="st0" x="26" y="25.2" width="436.7" height="345.8"/>
    </clipPath>
    <clipPath id="clippath-18">
      <rect class="st0" x="26" y="25.2" width="436.7" height="345.8"/>
    </clipPath>
    <clipPath id="clippath-19">
      <rect class="st0" x="26" y="25.2" width="436.7" height="345.8"/>
    </clipPath>
    <clipPath id="clippath-20">
      <rect class="st0" x="26" y="25.2" width="436.7" height="345.8"/>
    </clipPath>
    <clipPath id="clippath-21">
      <rect class="st0" x="26" y="25.2" width="436.7" height="345.8"/>
    </clipPath>
    <clipPath id="clippath-22">
      <rect class="st0" x="26" y="25.2" width="436.7" height="345.8"/>
    </clipPath>
    <clipPath id="clippath-23">
      <rect class="st0" x="26" y="25.2" width="436.7" height="345.8"/>
    </clipPath>
    <clipPath id="clippath-24">
      <rect class="st0" x="26" y="25.2" width="436.7" height="345.8"/>
    </clipPath>
    <clipPath id="clippath-25">
      <rect class="st0" x="26" y="25.2" width="436.7" height="345.8"/>
    </clipPath>
    <clipPath id="clippath-26">
      <rect class="st0" x="26" y="25.2" width="436.7" height="345.8"/>
    </clipPath>
    <clipPath id="clippath-27">
      <rect class="st0" x="26" y="25.2" width="436.7" height="345.8"/>
    </clipPath>
  </defs>
  <g>
    <path class="st36" d="M369.6,25.3c-15.4-.1-30.7.7-46,.7-41.2,0-82.4,0-123.6,0-6.2,0-12.5,0-18.7,0s-1.9,0-2.9,0c-19.2,0-38.3,0-57.5,0s-2.4,0-3.6,0c-10.3,0-20.6,0-30.9,0-14.8,0-29.7,0-44.6,0s-8.6,0-12.9,0-1.9,0-2.9,0v-.7h437v311.8H26v-91.2c2.4,2,3.5,5.1,5.2,7.5,8.6,12.1,23.7,25.4,40.3,20,8.3-2.7,13.3-10,17.1-17.2,10.5-19.4,13.6-38.7,16.5-60.9,1.8-13.7,1.1-30,4-43.9s.7-4.6,1.4-4.6M181.2,251.1c.9,10,17.9,37.4,25.4,44.6s17,11.5,25.6,13.9v-75.4c22.7,14.2,43.9,7.2,58.4-13.8,12.7-18.5,17.3-42.7,23.5-63.5,1.6-5.5,1.3-14.4,2.9-19.8,4.8-15.6,6-34.2,12.2-50.2M171.6,227.8l6.8,18v-97.7c2.2-.4,1.1.6,1.5,1.7.7,1.9,1.2,3.8,1.4,5.8M389.7,25.9c-2.6,0-5.3,0-7.9,0,.3,2.8-.4,6.3,0,9s1.4.7,1.6,2.1c2.2,17.4.3,35.9,4.2,52.6,1.6,6.8,1.2,18.7,2.3,26.4,2.4,16.9,6.8,35,12.3,50.9s2.1,2.2,2.5,4.7c1.4,7.4-.9,14.3.3,21.8s12.8,24.1,16.3,28.2c3.7,4.3,12.3,11.8,17.4,14.3,7.3,3.6,15.9,5.6,23.7,3.2-.2-58.3,0-114.6,0-172.9,0-13.4,0-26.8,0-40.2-24.2.3-48.4-.3-72.6,0Z"/>
    <path class="st6" d="M41.4,25.1c.9,2.8,1.2,7,2.2,9.8,1.8,5.1,7.4,16,11.4,20,7.5,7.5,13.5,5.5,19.1-2.1s5.9-9.9,7.4-13.6,2.2-10.1,4.4-14.1c10.3,0,20.6,0,30.9,0,.2,1.6.7,4.7,1,6.3.8,3.5,0,4.5.4,8.7s1,8.9,1.8,13.3l.4-28.3c19.2,0,39.3,0,58.5,0-.4,8.4-.6,19.4,0,27.3s1.7,5.8,1.5,9l.4-36.2c6.2,0,12.5,0,18.7,0,.8,9.5.4,19.9.7,29.4.6,21.5,1.1,44,3.6,64.6.9,7.1,2.2,14.2,3.6,20.2s2.1,23.8,1,30.5-2.1,5.6-2.4,7.5c-1.1,7,.4,16.5,1.5,22.8,2.5,14.9,7.3,25.4,15.3,38.4l9,10.2v-80.5c13.2,6.7,23.9,3,34.2-6.4,7.6-7,14.5-18,19.2-26.8,16.9-31.8,25.9-68.8,36.4-102.4.6-1.9.2-5.7,1.5-7.6,15.3,0,30.7-.3,46,.3-1.8,3.1-2.3,7.3-3.2,10.6s-4.1,10.9-6.5,13.5c-12.2,13-24.6,22.6-30.5,37.5-6.3,16-7.5,34.6-12.2,50.2-1.6,5.3-1.3,14.3-2.9,19.8-6.2,20.9-10.8,45.1-23.5,63.5-14.5,21.1-35.7,28.1-58.4,13.8v75.4c-8.6-2.4-19.1-8.7-25.6-14.9s-25.4-35.6-25.4-45.6c0-30.3.2-62.6,0-93.6,0-2-.7-3.9-1.4-5.8s.7-2.1-1.5-1.7v97.7l-6.8-18c-6.5-14.2-13.3-26.5-24.4-37.2-9.1-8.8-27.2-22.9-32.1-33.6s-3.8-6.4-4.6-10.4c-.7,0-.2,3.6-.4,4.6-2.9,13.8-3.2,30.2-5,43.9-3,22.3-6,41.5-16.5,60.9-3.9,7.1-8.8,14.5-17.1,17.2-16.6,5.4-31.6-9-40.3-21s-2.8-4.5-5.2-6.5v-84c3.3,4.9,5.6,10.9,9.2,15.6,7,9.4,18.3,19.8,30.9,15.4s24.4-30.6,28.6-44.7,2.3-7.6,3.2-10.6.4-3.6.8-5.2c-3.4-.2-7.8-.7-10.4-2.9l-1.1,2.9c2.4-4.6,1.6-16.6.2-20.4s-2.2-8.4-4.6-8.8c-6.2-1-14.2,19-24.1,20.1s-5.5-1-6.6,0c-3.4-6.1-5.4-6.3-8.9-12-5.3-8.7-9.7-21.7-12-31.8-4-17.5-1.6-36.6-2.2-54.4,4.3,0,8.6,0,12.9,0Z"/>
    <path class="st37" d="M28.9,24.9c.7,17.9-1.8,36.9,2.2,54.4,2.3,10.1,6.7,23.1,12,31.8,3.5,5.7,7.5,9.9,10.9,16,3.5,6.3,7.2,16.1,14,19.4,9.6,4.7,13.8-3,17-10.2.5-1.2,1.8-1.2,2.1-4.2l1.1-2.9c1.1.7,2.8,1.6,4.9,2.2,2.2.6,4.1.7,5.5.7-.4,1.6-.4,3.7-.8,5.2-.9,3.1-2.1,7.1-3.2,10.6-4.2,14.1-13.6,39.5-28.6,44.7-12.6,4.4-23.9-6-30.9-15.4-3.5-4.7-5.8-10.8-9.2-15.6V24.9c1,0,1.9,0,2.9,0Z"/>
    <path class="st37" d="M323.6,24.9c-1.3,2-.9,5.7-1.5,7.6-10.5,33.5-19.5,70.6-36.4,102.4-4.7,8.8-11.7,19.8-19.2,26.8-10.3,9.5-21.1,13.1-34.2,6.4v81.5c0,0-9.1-11.2-9.1-11.2-7.9-13-12.7-23.5-15.3-38.4-1.1-6.4-2.6-15.9-1.5-22.8s2-5.1,2.4-7.5c1.1-6.7.5-23.9-1-30.5s-2.7-13.2-3.6-20.2c-2.5-20.6-3-43.1-3.6-64.6s.1-19.9-.7-29.4c41.2,0,82.4,0,123.6,0Z"/>
    <path class="st6" d="M389.7,24.9c.4,2.1,1.7,5,2.4,6.9,3.4,10.4,7.4,19.4,11.6,29.9s1.6,1.6,1.9,3.5c1,5.5-.8,24.2-.2,26.7,1.6,6.2,11,3.5,15.4,2.5,14.8-3.4,21.3-2.9,32.5-15.2s6.2-8.5,9-13c.1,58.3-.1,114.6,0,172.9-7.8,2.4-16.4.4-23.7-3.2s-13.7-9.9-17.4-14.3c-3.5-4.1-16.3-23.2-16.3-28.2,0-7.4,0-14.4-.3-21.8s-2-5.2-2.5-6.7c-5.5-15.9-9.9-32-12.3-48.9-1.1-7.7-.7-19.6-2.3-26.4-3.9-16.8-2-35.3-4.2-52.6-.2-1.4-.4-.7-.6-2.1-.3-2.7-.6-7.2-.9-10,2.6,0,5.3,0,7.9,0Z"/>
    <path class="st37" d="M389.7,24.9c24.2-.3,48.4.3,72.6,0,0,13.4,0,28.8,0,42.2-2.7,4.5-5.4,10-9,14-11.1,12.3-17.7,9.8-32.5,13.2-4.4,1-13.7,3.7-15.4-2.5s-.5-21.3-.8-26.7-.7-1.8-.9-2.5c-4.2-10.5-8.2-20.5-11.6-30.9s-2-4.8-2.4-6.9Z"/>
    <path class="st37" d="M85.9,24.9c-2.1,3.9-2.8,10.2-4.4,14.1s-4.8,10.1-7.4,13.6c-5.6,7.6-11.6,10.6-19.1,3.1s-9.7-15.9-11.4-21-1.3-7-2.2-9.8c14.8,0,29.7,0,44.6,0Z"/>
    <path class="st37" d="M181.3,24.9l-.4,36.2c.1-3.1-2.2-6.3-2.5-9-1.1-7.9.7-19.1,0-27.3,1,0,1.9,0,2.9,0Z"/>
    <path class="st37" d="M120.9,24.9l-.4,28.3c-.8-4.4-1.3-8.9-1.8-13.3s-.6-5.2-1.4-8.7.2-4.6,0-6.3c1.2,0,2.4,0,3.6,0Z"/>
    <path class="st36" d="M87.1,132.2c-.3,3-1.6,3-2.1,4.2-3.2,7.2-7.4,14.9-17,10.2s-10.5-13.2-14-19.4"/>
  </g>
  <g id="figure_1">
    <g id="axes_1">
      <g id="matplotlib.axis_1">
        <g id="xtick_1">
          <g id="line2d_1">
            <path id="m4b0c73db7e" class="st35" d="M118.5,371v3.5"/>
          </g>
          <g id="text_1">
            <g>
              <path id="Cmsy10-a1" d="M107.7,387.2c0,0-.2,0-.3-.1,0,0,0-.2,0-.3s0-.2,0-.3c0,0,.2-.1.3-.1h11.5c0,0,.2,0,.3.1,0,0,0,.2,0,.3s0,.2,0,.3c0,0-.2.1-.3.1h-11.5Z"/>
              <path id="Cmr10-31" d="M123.1,391.8v-.7c1.7,0,2.5-.2,2.5-.6v-10.5c-.7.3-1.6.5-2.6.5v-.7c1.6,0,2.9-.4,3.7-1.3h.4v11.9c0,.4.8.6,2.5.6v.7h-6.6,0Z"/>
            </g>
          </g>
        </g>
        <g id="xtick_2">
          <g id="line2d_2">
            <path id="m4b0c73db7e1" class="st35" d="M244.4,371v3.5"/>
          </g>
          <g id="text_2">
            <path id="Cmr10-30" d="M244.4,392.2c-1.6,0-2.7-.7-3.3-2s-.9-2.9-.9-4.8.1-2.2.3-3.3c.2-1,.6-1.9,1.3-2.6.6-.7,1.5-1.1,2.6-1.1s1.6.2,2.2.6c.6.4,1,1,1.3,1.7s.5,1.4.6,2.2c.1.8.2,1.6.2,2.4s-.1,2.2-.3,3.2-.6,1.9-1.2,2.6-1.5,1.1-2.6,1.1h-.2ZM244.4,391.7c.7,0,1.3-.4,1.7-1.1.4-.8.6-1.6.7-2.5s.1-1.9.1-3,0-1.9-.1-2.8c0-.8-.3-1.6-.7-2.3-.4-.7-.9-1-1.7-1s-1.3.3-1.7,1-.6,1.5-.7,2.3c0,.8-.1,1.8-.1,2.8v2.1c0,.7.1,1.3.3,2s.4,1.3.8,1.8c.3.5.8.7,1.4.7Z"/>
          </g>
        </g>
        <g id="xtick_3">
          <g id="line2d_3">
            <path id="m4b0c73db7e2" class="st35" d="M370.3,371v3.5"/>
          </g>
          <g id="text_3">
            <path id="Cmr10-311" d="M367.1,391.8v-.7c1.7,0,2.5-.2,2.5-.6v-10.5c-.7.3-1.6.5-2.6.5v-.7c1.6,0,2.9-.4,3.7-1.3h.4v11.9c0,.4.8.6,2.5.6v.7h-6.6.1Z"/>
          </g>
        </g>
        <g id="text_4">
          <g>
            <path id="Cmmi10-21" d="M281.3,392c-.9,0-1.5-.3-1.9-1-.4-.6-.6-1.4-.6-2.3s0-1.2.2-1.8.3-1.2.5-1.8c.2-.6.5-1.2.8-1.7s.6-1,1-1.5c0,0,.2-.1.3-.1h.2v.4c-1.4,1.9-2.1,3.7-2.1,5.3s.2,1.3.5,1.8.8.8,1.5.8,1.1-.2,1.6-.5.9-.8,1.3-1.3c0-.3,0-.7.1-1.3,0-.6.2-1.1.4-1.5.2-.4.4-.7.7-.7s.5.2.5.6,0,.5-.2.9c-.1.4-.2.7-.3,1-.1.3-.3.7-.5,1.1.2,1.1.7,1.6,1.6,1.6s1.1-.2,1.6-.5,1-.7,1.4-1.2.7-1,1-1.6c.2-.6.4-1.1.4-1.6s0-.8-.2-1.1-.3-.5-.6-.8c-.2-.3-.4-.5-.4-.7,0-.3.1-.6.4-.8.3-.2.5-.4.8-.4s.6.2.8.5c.2.3.2.7.2,1.2s-.1,1.6-.4,2.7-.6,2-1,2.7c-.5,1-1.1,1.8-1.9,2.4-.7.7-1.6,1-2.5,1s-1.1-.2-1.4-.5-.6-.8-.7-1.5c-.4.6-.9,1.1-1.5,1.4s-1.1.5-1.8.5l.2.3Z"/>
            <path id="Cmmi10-42" d="M293.6,395.6c-.1,0-.2,0-.2-.2h0v-.3h1.5c.1,0,.2-.2.3-.4l2.2-8.8v-.2c0-.1,0-.2-.2-.2h-1.2c-.6,0-.2,0-.2-.2h0v-.3h5.9c.4,0,.7,0,1,.1.3,0,.7.2,1,.4.3.2.5.4.7.7.2.3.3.6.3,1s-.1.8-.3,1.1c-.2.3-.5.6-.8.9s-.7.5-1.1.6c-.4.2-.8.3-1.2.4.3,0,.6,0,.9.2.3.1.6.3.8.5.2.2.4.4.6.7.1.3.2.6.2.9,0,.6-.2,1.2-.7,1.8-.5.5-1,1-1.7,1.3s-1.3.5-2,.5h-6.1l.3-.5ZM296.6,394.9s.2.1.6.1h2.3c.5,0,1-.1,1.5-.4s.9-.7,1.2-1.2c.3-.5.4-1,.4-1.5s0-.6-.2-.9c-.1-.3-.3-.5-.6-.7-.3-.2-.5-.2-.9-.2h-3.1l-1.1,4.5v.4h0ZM297.8,389.7h2.4c.5,0,1-.1,1.5-.4s.9-.6,1.2-1.1c.3-.5.5-.9.5-1.4s-.1-.9-.4-1.2c-.3-.3-.7-.5-1.1-.5h-2.8s-.2.2-.3.5l-1,4h0Z"/>
            <path id="Cmmi10-3d" d="M307.7,397h0l8-22.2s0-.2.2-.2h.3c.1,0,.2,0,.3.1,0,0,.1.2.1.3h0l-8,22.3c0,.2-.2.3-.4.3s-.2,0-.3-.1c0,0-.1-.2-.1-.3v-.2Z"/>
            <path id="Cmmi10-211" d="M320.7,392c-.9,0-1.5-.3-1.9-1-.4-.6-.6-1.4-.6-2.3s0-1.2.2-1.8.3-1.2.5-1.8c.2-.6.5-1.2.8-1.7s.6-1,1-1.5c0,0,.2-.1.3-.1h.2v.4c-1.4,1.9-2.1,3.7-2.1,5.3s.2,1.3.5,1.8.8.8,1.5.8,1.1-.2,1.6-.5.9-.8,1.3-1.3c0-.3,0-.7.1-1.3,0-.6.2-1.1.4-1.5.2-.4.4-.7.7-.7s.5.2.5.6,0,.5-.2.9c-.1.4-.2.7-.3,1-.1.3-.3.7-.5,1.1.2,1.1.7,1.6,1.6,1.6s1.1-.2,1.6-.5,1-.7,1.4-1.2.7-1,1-1.6c.2-.6.4-1.1.4-1.6s0-.8-.2-1.1-.3-.5-.6-.8c-.2-.3-.4-.5-.4-.7,0-.3.1-.6.4-.8.3-.2.5-.4.8-.4s.6.2.8.5c.2.3.2.7.2,1.2s-.1,1.6-.4,2.7-.6,2-1,2.7c-.5,1-1.1,1.8-1.9,2.4-.7.7-1.6,1-2.5,1s-1.1-.2-1.4-.5-.6-.8-.7-1.5c-.4.6-.9,1.1-1.5,1.4s-1.1.5-1.8.5l.2.3Z"/>
            <path id="Cmmi10-7a" d="M333,395.8s-.1,0-.1-.1h0c.3-.6.6-1.1,1-1.5.4-.5.9-.9,1.4-1.4s1-.9,1.6-1.4c.5-.5.9-.9,1.3-1.2h0c-.2,0-.6,0-1-.2-.5-.2-.8-.2-1.1-.2s-.6,0-.8.2c-.3.1-.4.3-.5.6,0,0,0,.1-.1.1h-.2s-.1,0-.1-.2h0c0-.4.2-.7.4-.9.2-.3.4-.5.7-.7.3-.2.6-.3.9-.3s.4,0,.5.1c.1,0,.3.2.5.5.2.2.3.4.5.4s.3.1.4.1.4-.1.6-.3.4-.5.6-.8h.3v.2c-.3.5-.6,1-1,1.4l-1.5,1.5c-.6.6-1.1,1-1.6,1.4l-1.2,1.2h.3c.3,0,.6,0,1.1.2.5.1.8.2,1,.2s.5,0,.8-.2c.3-.1.5-.3.7-.5s.3-.5.4-.7c0,0,0-.1.1-.1h.3c0,.2,0,.1,0,.1,0,.4-.3.8-.5,1.2-.2.4-.5.7-.9.9-.4.2-.7.4-1.2.4s-.4,0-.5-.1c-.1,0-.3-.2-.5-.5-.2-.2-.3-.4-.5-.4s-.3-.1-.4-.1c-.5,0-1,.4-1.4,1.1h-.3,0Z"/>
          </g>
        </g>
      </g>
      <g id="matplotlib.axis_2">
        <g id="ytick_1">
          <g id="line2d_4">
            <path id="m1469396691" class="st35" d="M26,371h-3.5"/>
          </g>
          <g id="text_5">
            <path id="Cmr10-301" d="M14,378.4c-1.6,0-2.7-.7-3.3-2s-.9-2.9-.9-4.8.1-2.2.3-3.3c.2-1,.6-1.9,1.3-2.6.6-.7,1.5-1.1,2.6-1.1s1.6.2,2.2.6,1,1,1.3,1.7.5,1.4.6,2.2c.1.8.2,1.6.2,2.4s-.1,2.2-.3,3.2c-.2,1-.6,1.9-1.2,2.6s-1.5,1.1-2.6,1.1h-.2ZM14,377.9c.7,0,1.3-.4,1.7-1.1.4-.8.6-1.6.7-2.5s.1-1.9.1-3,0-1.9-.1-2.8c0-.8-.3-1.6-.7-2.3-.4-.7-.9-1-1.7-1s-1.3.3-1.7,1-.6,1.5-.7,2.3c0,.8-.1,1.8-.1,2.8v2.1c0,.7.1,1.3.3,2s.4,1.3.8,1.8c.3.5.8.7,1.4.7Z"/>
          </g>
        </g>
        <g id="ytick_2">
          <g id="line2d_5">
            <path id="m14693966911" class="st35" d="M26,301.8h-3.5"/>
          </g>
          <g id="text_6">
            <path id="Cmr10-312" d="M10.9,308.8v-.7c1.7,0,2.5-.2,2.5-.6v-10.5c-.7.3-1.6.5-2.6.5v-.7c1.6,0,2.9-.4,3.7-1.3h.4v11.9c0,.4.8.6,2.5.6v.7h-6.6.1Z"/>
          </g>
        </g>
        <g id="ytick_3">
          <g id="line2d_6">
            <path id="m14693966912" class="st35" d="M26,232.7h-3.5"/>
          </g>
          <g id="text_7">
            <path id="Cmr10-32" d="M10,239.6v-.5h0c0-.1,3.1-3.5,3.1-3.5.5-.5.8-.9,1.1-1.3.3-.3.6-.7.9-1.2.3-.5.5-.9.7-1.4s.3-1,.3-1.5-.1-1.1-.3-1.6-.5-.9-.9-1.2-.9-.5-1.5-.5-1.1.2-1.6.5-.8.8-1,1.4h.2c.3,0,.6.1.8.3s.3.5.3.8-.1.6-.3.8-.5.3-.8.3-.6-.1-.8-.3-.3-.5-.3-.8c0-.5,0-1,.3-1.4.2-.4.5-.8.8-1.2.4-.3.8-.6,1.2-.8s.9-.3,1.4-.3c.8,0,1.5.2,2.1.5.7.3,1.2.8,1.6,1.4.4.6.6,1.3.6,2.1s-.1,1.1-.4,1.7-.6,1-1,1.4-.9.9-1.5,1.5c-.6.5-1,.9-1.2,1.1l-2.3,2.2h5.3c.2-.2.3-.8.5-1.8h.6l-.6,3.6h-7.4v-.3Z"/>
          </g>
        </g>
        <g id="ytick_4">
          <g id="line2d_7">
            <path id="m14693966913" class="st35" d="M26,163.5h-3.5"/>
          </g>
          <g id="text_8">
            <path id="Cmr10-33" d="M11,168.9c.3.5.7.8,1.3,1,.5.2,1.1.3,1.7.3s1.3-.3,1.7-1c.3-.7.5-1.4.5-2.3s0-.8-.1-1.1c0-.4-.2-.7-.3-1.1s-.4-.6-.7-.8-.6-.3-1-.3h-1.3c-.1,0-.2,0-.2-.2v-.2c0-.1,0-.2.2-.2h1.1c.5,0,.9-.3,1.2-.6.3-.4.5-.8.7-1.3s.2-1,.2-1.4-.2-1.2-.5-1.6-.8-.6-1.4-.6-1,0-1.5.3-.8.5-1.1.9h0c.3,0,.6.1.8.3s.3.5.3.8-.1.5-.3.7-.5.3-.8.3-.5-.1-.8-.3c-.2-.2-.3-.5-.3-.7,0-.6.2-1.1.5-1.5s.8-.7,1.3-1,1.1-.3,1.6-.3.8,0,1.3.2c.5.1.9.3,1.2.5s.7.5.9.9c.2.4.3.8.3,1.2s-.1,1.1-.4,1.6-.6.9-1,1.2-.9.6-1.4.8c.6.1,1.1.3,1.7.7.5.3.9.7,1.3,1.3.3.5.5,1.1.5,1.6s-.2,1.4-.6,2-.9,1.1-1.6,1.4c-.7.3-1.4.5-2.1.5s-1.3-.1-1.9-.4c-.6-.2-1.1-.6-1.5-1.1s-.6-1-.6-1.7.1-.6.3-.8.5-.3.8-.3.4,0,.6.2.3.2.4.4c.1.2.2.4.2.6,0,.3-.1.6-.3.8s-.5.3-.8.3h-.1,0Z"/>
          </g>
        </g>
        <g id="ytick_5">
          <g id="line2d_8">
            <path id="m14693966914" class="st35" d="M26,94.4h-3.5"/>
          </g>
          <g id="text_9">
            <path id="Cmr10-34" d="M9.6,98v-.7l6.2-9.2s.1,0,.2,0h.3q.2,0,.2.2v9.1h2v.7h-2v2c0,.3.2.4.6.5.4,0,.8,0,1.4,0v.7h-5.5v-.7c.5,0,1,0,1.4,0,.4,0,.6-.2.6-.5v-2h-5.4ZM10.3,97.3h4.7v-7.1l-4.7,7.1Z"/>
          </g>
        </g>
        <g id="ytick_6">
          <g id="line2d_9">
            <path id="m14693966915" class="st35" d="M26,25.2h-3.5"/>
          </g>
          <g id="text_10">
            <path id="Cmr10-35" d="M10.8,29.9c.1.4.3.7.6,1.1.3.3.6.6,1,.7.4.2.8.3,1.2.3,1,0,1.6-.4,2-1.1s.5-1.7.5-2.7v-1.2c0-.3,0-.6-.1-.9-.1-.5-.3-.9-.7-1.2-.3-.4-.7-.5-1.1-.5s-.8,0-1.2.2c-.3.1-.6.3-.8.5s-.4.4-.5.6-.3.3-.3.3h-.3v-6.8h0q0-.1.1-.1h0c.9.4,1.9.6,2.9.6s1.9-.2,2.9-.6h.1v.3h0c-.5.6-1,1.1-1.7,1.4s-1.4.5-2.1.5-1.1,0-1.6-.2v3.8c.4-.4.8-.6,1.2-.8.3-.2.8-.2,1.3-.2s1.4.2,2,.6,1,1,1.3,1.7.5,1.4.5,2.1-.2,1.5-.6,2.2-.9,1.2-1.6,1.6c-.7.4-1.4.6-2.2.6s-1.3-.2-1.8-.5c-.6-.3-1-.8-1.3-1.4s-.5-1.2-.5-1.8,0-.5.3-.7c.2-.2.4-.3.7-.3s.5,0,.7.3c.2.2.3.4.3.7s0,.5-.3.7-.4.3-.7.3,0,0-.2,0h-.1.1Z"/>
          </g>
        </g>
        <g id="text_11">
          <path id="Cmmi10-b4" d="M9.7,130.9c-.2,0-.3,0-.5-.2-.1-.1-.2-.3-.2-.5v-.2l1.7-6.9c.1-.4.2-.8.2-1.1,0-.7-.2-1-.7-1s-.8.3-1.1.9c-.2.6-.5,1.3-.7,2.2h0q0,0-.1,0h-.4v-.2c.2-.7.3-1.2.5-1.7.2-.5.4-.9.7-1.3s.7-.6,1.2-.6,1.1.2,1.5.5.7.8.7,1.4c.5-.6,1-1.1,1.6-1.4s1.3-.5,2-.5,1.4.2,1.9.6.7,1,.7,1.8,0,.9-.2,1.3l-2.7,10.6c0,.2-.2.4-.3.5s-.4.2-.6.2-.3,0-.5-.2c-.1-.1-.2-.3-.2-.5v-.2l2.6-10.6c.2-.6.2-1.2.2-1.6s0-.8-.3-1.1-.5-.4-.9-.4c-1.5,0-2.8.9-3.7,2.8l-1.6,6.3c0,.2-.2.4-.4.5-.2.2-.4.2-.6.2l.2.3Z"/>
        </g>
      </g>
      <g id="line2d_11">
        <g class="st27">
          <path class="st0" d="M26,397"/>
        </g>
      </g>
      <g id="line2d_12">
        <g class="st25">
          <path class="st0" d="M26,397"/>
        </g>
      </g>
      <g id="line2d_13">
        <g class="st26">
          <path class="st1" d="M24.8-1c4.3,33.7,9.5,68.1,18.7,100.9,3.7,12.1,17.8,60.5,36.1,45.6C100.1,120.4,101.8,33.7,104.8-.9"/>
        </g>
      </g>
      <g id="line2d_14">
        <g class="st32">
          <path class="st0" d="M26,397"/>
        </g>
      </g>
      <g id="line2d_15">
        <g class="st29">
          <path class="st0" d="M26,397"/>
        </g>
      </g>
      <g id="line2d_17">
        <g class="st28">
          <path class="st5" d="M362.4-1c-3.9,78-6.7,161.6-34.4,235.5-10.5,28.5-26.3,59.5-55.9,71.8-20,8.4-44.3,6.2-61.2-8-25.8-22-31.7-58.5-47-87.3-9-16.2-24.6-27.8-37.6-40.5-9.2-8.9-15.3-16-16.2-29.5h-.2c-3.3,33.3-5.4,107-32.8,128.3-12.1,8.2-25.3,3.4-35.5-5.5C17.3,240,7.4,203.6-1,171.3"/>
        </g>
      </g>
      <g id="line2d_19">
        <g class="st31">
          <path class="st5" d="M150.6-1c11.5,67.7,19.4,174.4,68.6,225,14.7,14.9,37.6,24,56.6,11.4,30.2-21.2,37.3-77.6,44.7-111.9,2.7-13.8,6.5-33.2,12.9-45.9l6-7.8,11.8-10.6c16.4-14.5,19-39.7,21.6-60.1"/>
        </g>
      </g>
      <g id="line2d_22">
        <g class="st30">
          <path class="st5" d="M383.4-1c3.6,33.6,7.6,71.1,19.3,103.1,6.7,18.9,19.4,34.2,38.5,41.3,9.3-.2-12.3-34.1-15.9-37.7-28.5-32.3-36.4,1.1-41.7,27-1-1.1-.7-4.7.5-5.6,11.2,32,16.4,69.2,38.9,96.1,11.4,14.2,31.6,22.7,48,11.6"/>
        </g>
      </g>
      <g id="line2d_23">
        <g class="st12">
          <path class="st5" d="M381.1-1c1.6,34.8,4.7,79,9.2,113.5,3.3,19.7,7,45.1,17.1,62.7,11.3,17.2,22.1,9.1,27.3-7.1,10.8-53.7-4.5-115.7-12-169"/>
        </g>
      </g>
      <g id="line2d_25">
        <g class="st9">
          <path class="st5" d="M88.6,128.8c0-6.6-.4-14.9-2.4-21.2-1.5-4-3.4-6.2-7.4-3-6.6,5.5-18.4,25.2-28.1,16.5-3.4-4-3-10.3,3.6-7.3,9.9,5.1,18.4,13.3,28.1,18.9,6.1,3.3,6.1-2.5,6.3-7-.3-6.5-.6-16.4-4.6-21.8-2.8-2.4-5.8,1.1-7.7,3-4.9,4.9-12,14.9-19.3,16.3-4.5.8-8.4-2.9-8.5-7.3.4-5.8,7.6-1.2,10.2.4"/>
        </g>
      </g>
      <g id="line2d_26">
        <g class="st16">
          <path class="st5" d="M270.1-1c-5.9,24.2-16.1,67.6-40.6,78.7-34.7,10.9-57.9-53.3-65.5-78.7"/>
        </g>
      </g>
      <g id="line2d_27">
        <g class="st14">
          <path class="st5" d="M175.6-1c3.9,37.4,10.3,78.9,18.1,115.8,6.2,24,13.9,53.1,29.9,72.6,16.2,20.1,39.3,26.3,61.2,10.8,47.9-36.3,62.2-141.8,70.1-199.2"/>
        </g>
      </g>
      <g id="line2d_41">
        <g class="st15">
          <path class="st2" d="M111-1l.3,8.5,2.1,3.1,2.8-2.6,3.6-.6,4.7,2.7,6.3,5.3,9.7,3.2,8.5-15.5.8-4M333.1,183c10.6-28.4,17.4-63.2,23.9-92.9-6.5,32-15.2,71.5-27.3,101.9-18.4,55.9-82.4,104.9-115,30.2-9-20-9.5-42.9-4.9-64-7.8-51.4-8.7-107.3-11.4-159.1M149.5-1l-1,5.4-9,14.5-9.5-4.1-6.1-5.1-4.5-2.4-3.5,1-2.7,2.6-1.9-5.2V-1h0"/>
        </g>
      </g>
      <g id="line2d_42">
        <g class="st13">
          <path class="st2" d="M168.8-1l2.4,14.1,3.2,17.6,3.1,15.6,3.1,14.3,3.1,12.7-3.8-16.2-2.3-10.6-2.6-12.9-1.9-10.3-4.2-24.3M168.8-1l2.7,15.7,2.7,15.1,2.6,13.1,2.5,11.7,2.6,11.3,1.7,6.8-3.6-15-2.2-10.4-2.6-12.7-1.9-10.2-2.5-14.1-1.9-11.2M168.8-1c8.7,48.3,19,116.4,48.9,155.6,8.4,10.5,21.4,19.9,35.5,15.3,42.6-17.5,64.7-128.3,77.5-170.9"/>
        </g>
      </g>
      <g id="line2d_43">
        <g class="st10">
          <path class="st2" d="M395.9-1c5.5,58.8,20.5,118.2,36.4,175-15.6-56.2-31-116.9-36.4-175"/>
        </g>
      </g>
      <g id="line2d_44">
        <g class="st7">
          <path class="st2" d="M149.8-1l-.5,2.5-9,17-9.6-3.1-5.2-4.5-3.6-2.6-3.9-1.1-2.3,1.2-1.7,1.7-2.1.4-.9-8.1V-1M111-1V1.8l.6,7.6,1.1,1.6,2.6-2.4,3.4-1.5,4.4,1.9,5.9,4.8,9,5.3,10-13,1.5-7.1M149.6-1l-7.3,18.1-10.7-1.1-5.8-5-3.9-2.8-4.1-1-2.3,1.4-1.8,1.7-2-1-.6-10.4M111-1v5.6l1.9,6.4,2.7-2.5,3.4-1.2,4.4,2.1,6,5,9.1,4.8,9.5-13.2,1.4-6.9M148.8-1l-6.6,18.1-10.9-1.2-6.5-5.5-4.8-3-3.7.5-2.9,2.6-2.1-2.7-.3-8.8M111-1v5.1l1.3,6.8,4.9-3.5h3.3c0,0,2.8,1.7,2.8,1.7l10.9,8.7,12-6.9,3.8-11.9M149.1-1l-2.7,11.4h0"/>
        </g>
      </g>
      <g id="line2d_45">
        <g class="st11">
          <path class="st2" d="M-1,34.1c5.3,14.3,7,44.9,9.2,60.2,2.3,16.4,5.9,34,11,49.8,7,19.3,16.5,44.3,38.7,49.2,48.8-.7,51.4-156,58.2-194.3h0"/>
        </g>
      </g>
      <g id="line2d_46">
        <g class="st8">
          <path class="st2" d="M182.1-1c25.2,58.3,58.7,65.6,79.3,0"/>
        </g>
      </g>
      <g id="line2d_47">
        <g class="st19">
          <path class="st2" d="M335.2-1c-30.8,154.2-89.4,143.1-127.2,0"/>
        </g>
      </g>
      <g id="line2d_48">
        <g class="st20">
          <path class="st2" d="M376.8,18h0v-1c-.1,0,.2,3,.2,3v.8l-2.2-21.8M379.4-1c3.8,19.8,12.1,91.5,31.9,97.3,7.5-1.5,16.8-3.8,24.5-4.4,10-3.3,13-6,20.2-13.3,5.1-7,12.4-22.3,14.9-30.5M374.8-1l2.2,20.8-2.2-20.8"/>
        </g>
      </g>
      <g id="line2d_49">
        <g class="st21">
          <path class="st2" d="M0,0"/>
        </g>
      </g>
      <g id="line2d_53">
        <g class="st22">
          <path class="st2" d="M110.9-1V-.1l1.3,10.9,2-1,2.4-2.1,2.8-.6,3.2,1.5,3.9,3,4.4,3.9,4.6,3,4.2.2,3.4-2.8,2.7-4.5,2.4-6.5-6.2,12.3,4.5-7.4-4.4,7.3.4-.4-3.8,2.4,4.9-3.7-3.7,3.4,4.1-4.1-3.7,3.9,2.4-2.1-3.3,2.4,3.6-2.8-3.1,2.6h-4.1l-6.4-4.2-3.3-2.9-3-2.4-2.5-1.5-2.1-.6-2.3.7-1.8,1.6-2.1,1.6-1.1-2.4-.4-5.3V-1M111-1l.5,9.9,1,2.1,1.4-1,3.4-2.7,4.4.8,5.8,4.5,9.3,6.4,12.9-20M149.3-1l-2.6,10.7-9.9,9.3-8.4-5.7-5.8-4.6-4.3-1.6-3.3,1.8-2.6,2.1-1.6-12h0"/>
        </g>
      </g>
      <g id="line2d_54">
        <g class="st23">
          <path class="st3" d="M22.1-1l.3,1.4-.2,2-1.6-3.4M19.1-1c2.6,31.2,6.1,63.3,15.3,93.4,3.4,9.9,7.6,20.2,15.4,27.5h0"/>
        </g>
      </g>
      <g id="line2d_55">
        <g class="st24">
          <path class="st3" d="M120.8-1c-2.7,28.6-6,58.2-9.9,86.6-1,7.2-2.1,14.6-3.2,21.9-1.1,5.8-1.6,12.4-3.5,18,1.4-41.3,4.7-85.1,6.1-126.4"/>
        </g>
      </g>
      <g id="line2d_56">
        <g class="st18">
          <path class="st2" d="M90.3,132"/>
        </g>
      </g>
      <g id="line2d_57">
        <g class="st17">
          <path class="st2" d="M127.3,47.9h0c-.6,3.3-.4,10.4-3.2,12.8l-1.3-.7c-1.2-2.2-2.4-7.4-2.8-10-2.2-14.1-3-36.6-3.6-51.1M92.8-1c-3.1,12.4-14.7,71.9-34.8,58.6C44.8,45.9,38.4,15.8,32.9-1h0"/>
        </g>
      </g>
      <g id="patch_3">
        <path class="st4" d="M26,371V25.2"/>
      </g>
      <g id="patch_4">
        <path class="st4" d="M462.7,371V25.2"/>
      </g>
      <g id="patch_5">
        <path class="st4" d="M26,371h436.7"/>
      </g>
      <g id="patch_6">
        <path class="st4" d="M26,25.2h436.7"/>
      </g>
      <g id="text_12">
        <g>
          <path id="Cmsy10-a3" d="M29.4,22.5c0-.1,0-.2.1-.3l4.8-4.8-4.8-4.8s-.1-.2-.1-.3,0-.2.1-.3c0,0,.2-.1.3-.1s.2,0,.3.1l4.8,4.8,4.7-4.8c0,0,.2-.1.3-.1s.2,0,.3.1c0,0,0,.2,0,.3s0,.2,0,.3l-4.8,4.8,4.8,4.8s0,.2,0,.3,0,.2,0,.3c0,0-.2.1-.3.1s-.2,0-.3-.2l-4.7-4.7-4.8,4.7c-.1.1-.2.2-.3.2s-.2,0-.3-.1c0,0-.1-.2-.1-.3Z"/>
          <path id="Cmr10-313" d="M46.1,23.1v-.8c1.9,0,2.9-.2,2.9-.7v-12.1c-.8.4-1.8.6-3,.6v-.8c1.9,0,3.3-.5,4.3-1.5h.5v13.7c0,.5,1,.7,2.9.7v.8h-7.6Z"/>
          <path id="Cmr10-302" d="M61.2,23.6c-1.9,0-3.2-.8-3.8-2.3-.7-1.5-1-3.4-1-5.5s0-2.6.4-3.8c.2-1.2.7-2.2,1.4-3s1.7-1.2,3-1.2,1.8.2,2.5.7c.6.5,1.1,1.1,1.5,1.9.3.8.6,1.6.7,2.5s.2,1.8.2,2.8,0,2.6-.4,3.7c-.2,1.2-.7,2.1-1.4,2.9s-1.7,1.2-3,1.2h0ZM61.2,23c.9,0,1.5-.4,1.9-1.3s.7-1.8.8-2.9,0-2.2,0-3.4,0-2.2,0-3.2c0-1-.4-1.9-.8-2.6-.4-.8-1.1-1.2-1.9-1.2s-1.5.4-1.9,1.2-.7,1.7-.8,2.6c0,1,0,2,0,3.2v2.4c0,.8.2,1.5.3,2.3s.5,1.5.9,2,.9.8,1.6.8h0Z"/>
          <path id="Cmsy10-a11" d="M69.6,10.6s-.2,0-.2-.1v-.4s0-.1.2-.1h9.2s.2,0,.2.1v.4s0,.1-.2.1h-9.2Z"/>
          <path id="Cmr10-331" d="M82,13.1c.3.4.6.6,1,.8s.9.3,1.4.3,1.1-.3,1.3-.8c.3-.5.4-1.1.4-1.8v-.9c0-.3,0-.6-.3-.9s-.3-.5-.5-.6c-.2-.2-.5-.2-.8-.2h-1.1s0,0,0-.1h0c0-.2,0-.3,0-.3h.9c.4,0,.7-.2.9-.5.2-.3.4-.6.5-1s.2-.8.2-1.2,0-.9-.4-1.3-.6-.5-1.1-.5-.8,0-1.2.2-.7.4-.9.7h0c.2,0,.4,0,.6.3.2.2.2.4.2.6s0,.4-.2.6-.4.3-.6.3-.4,0-.6-.3c-.2-.2-.3-.4-.3-.6,0-.5,0-.9.4-1.2s.6-.6,1.1-.8.9-.3,1.3-.3.7,0,1,0c.4,0,.7.2,1,.4.3.2.5.4.7.7.2.3.3.6.3,1s0,.9-.3,1.3-.5.7-.8,1c-.4.3-.7.5-1.2.6.5,0,.9.3,1.3.5.4.3.8.6,1,1,.3.4.4.8.4,1.3s-.2,1.1-.5,1.6-.8.9-1.3,1.1c-.5.3-1.1.4-1.7.4s-1,0-1.5-.3c-.5-.2-.9-.5-1.2-.9s-.5-.8-.5-1.4,0-.5.3-.7.4-.3.7-.3.3,0,.5.1.3.2.3.3,0,.3,0,.5c0,.3,0,.5-.3.7-.2.2-.4.3-.7.3h0l.2.2Z"/>
        </g>
      </g>
      <g id="patch_7">
        <path class="st34" d="M406.9,319.1v26h3c-1.3,4-2.7,8-4,12-1.3-4-2.7-8-4-12h3v-26h2Z"/>
      </g>
    </g>
  </g>
  <path class="st33" d="M98.7,132.4c-1.1-.3-9.3-2.1-10.4-2.4"/>
</svg>